:SAMPLES-PER-SECOND 24
:FULLY-SPECIFIED
:DEGREES
348
root  0.851972 40.2483 35.6503 -28.6324 -43.0658 30.4808
RightUpLeg  -6.71462 19.8534 -11.5496
RightLeg  23.74 1.99092 0.735933
RightFoot  -5.07202 0.721389 -13.7136
RightToes  -2.08645e-008 3.77894e-005 6.81332e-007
Spine  9.10126 -1.18165 -3.92724
Spine1  6.61948 -2.87691 5.39961
HEad  -26.0825 32.0777 -11.6336
LeftShoulder1  8.28101 -14.0322 -40.961
LeftArm  7.72525 17.088 -27.3637
LeftForeArm  170.321 -64.5334 -159.412
LeftHand  0.163224 -4.23297 -1.69257
RightShoulder  4.04431 6.80678 33.3387
RightArm  24.4669 -16.5689 22.8621
RightForeArm  78.7373 79.6417 67.4137
RightHand  -0.163974 8.58761 -1.74657
LeftUpLeg  -34.2796 18.9734 8.12181
LeftLeg  44.1179 4.56258 5.10714
LeftFoot  12.6987 6.00854 -28.097
LeftToes  1.24767e-006 1.47042e-008 1.32732e-009
349
root  0.664757 40.0272 35.2928 -22.0709 -42.1949 23.7922
RightUpLeg  -7.71674 16.9581 -6.88945
RightLeg  22.4371 0.933294 0.222955
RightFoot  -4.59777 0.810722 -14.1943
RightToes  -2.08645e-008 3.77894e-005 6.81332e-007
Spine  7.2697 -2.65782 -5.11164
Spine1  6.48207 -5.65899 11.0615
HEad  -26.2743 35.0446 -9.6391
LeftShoulder1  8.24535 -13.9993 -40.8529
LeftArm  9.32228 15.7376 -28.2407
LeftForeArm  171.006 -65.1694 -158.914
LeftHand  0.197385 -4.34562 -2.07324
RightShoulder  4.03658 6.78168 33.3594
RightArm  23.599 -20.3605 21.2879
RightForeArm  90.2844 80.2468 78.9649
RightHand  0.0663413 8.9581 0.149304
LeftUpLeg  -30.582 20.1795 4.33647
LeftLeg  48.2298 1.35152 2.07075
LeftFoot  10.9616 5.80574 -29.2076
LeftToes  1.24767e-006 1.47042e-008 1.32732e-009
350
root  0.413666 39.8713 34.8424 -15.2985 -39.225 16.983
RightUpLeg  -8.51336 12.3532 -2.34256
RightLeg  20.0068 0.564241 -0.192497
RightFoot  -3.51678 0.991281 -14.7381
RightToes  -2.08645e-008 3.77894e-005 6.81332e-007
Spine  4.55902 -4.41863 -6.1918
Spine1  6.87234 -8.48439 15.5633
HEad  -26.2102 36.3385 -7.46414
LeftShoulder1  8.12302 -13.9117 -40.4141
LeftArm  11.2925 13.3386 -29.0292
LeftForeArm  171.263 -66.134 -158.025
LeftHand  0.198211 -4.4294 -2.05981
RightShoulder  4.06884 6.78489 33.6596
RightArm  21.78 -24.6601 20.6907
RightForeArm  105.187 80.4229 93.5726
RightHand  0.218882 9.19086 1.3394
LeftUpLeg  -26.1294 21.5765 1.06087
LeftLeg  51.8795 3.80105 5.67335
LeftFoot  11.2086 5.52289 -27.5803
LeftToes  1.24767e-006 1.47042e-008 1.32732e-009
351
root  0.114936 39.7168 34.3355 -8.9574 -34.1122 10.929
RightUpLeg  -9.7612 5.84737 2.06942
RightLeg  17.0836 0.796413 -0.749416
RightFoot  -2.30972 1.19802 -15.2544
RightToes  -2.08645e-008 3.77894e-005 6.81332e-007
Spine  1.41241 -6.2873 -8.05789
Spine1  6.71734 -11.372 20.542
HEad  -25.2541 35.8786 -5.24168
LeftShoulder1  8.02194 -13.837 -40.0533
LeftArm  13.2368 11.3695 -30.0361
LeftForeArm  171.14 -66.9872 -157.144
LeftHand  0.198983 -4.68007 -2.00116
RightShoulder  4.11833 6.77925 34.1595
RightArm  19.189 -28.9436 20.8319
RightForeArm  119.579 79.9646 107.994
RightHand  0.389694 9.33123 2.66243
LeftUpLeg  -21.0786 22.8185 -0.825688
LeftLeg  55.107 6.26314 10.056
LeftFoot  10.6329 4.83842 -24.9089
LeftToes  1.24767e-006 1.47042e-008 1.32732e-009
352
root  -0.196772 39.6126 33.7328 -3.77161 -27.2636 6.21661
RightUpLeg  -11.4112 0.960921 5.36311
RightLeg  13.6115 -1.27798 -0.364872
RightFoot  -0.925078 1.37474 -15.0476
RightToes  -2.08645e-008 3.77894e-005 6.81332e-007
Spine  -1.21527 -8.17354 -11.3948
Spine1  5.67939 -14.1958 26.4885
HEad  -24.6313 34.0682 -4.17598
LeftShoulder1  7.95017 -13.7668 -39.8381
LeftArm  14.8968 10.3234 -31.5296
LeftForeArm  170.995 -67.474 -156.606
LeftHand  0.193768 -4.72197 -1.9295
RightShoulder  4.08693 6.69175 34.1952
RightArm  14.6332 -32.3793 22.312
RightForeArm  129.143 79.218 117.822
RightHand  0.804479 10.1442 5.56417
LeftUpLeg  -15.3192 23.7657 -0.801136
LeftLeg  57.6948 5.91439 10.5073
LeftFoot  9.38184 4.15552 -22.7841
LeftToes  1.24767e-006 1.47042e-008 1.32732e-009
353
root  -0.446916 39.4942 33.0155 0.478516 -19.2537 2.45081
RightUpLeg  -13.6586 -0.208844 7.19387
RightLeg  10.1025 -7.54695 1.29028
RightFoot  0.438301 1.47257 -14.1597
RightToes  -2.08645e-008 3.77894e-005 6.81332e-007
Spine  -3.54808 -9.94887 -14.3602
Spine1  4.53326 -16.5248 31.8995
HEad  -25.3668 31.1168 -4.66195
LeftShoulder1  7.89497 -13.72 -39.6526
LeftArm  16.2734 9.58328 -33.1242
LeftForeArm  170.28 -67.9892 -155.943
LeftHand  0.137701 -4.58349 -1.31418
RightShoulder  4.00626 6.55343 33.9476
RightArm  7.95002 -34.1671 25.0485
RightForeArm  133.616 78.6034 123.03
RightHand  0.911236 10.6827 6.13178
LeftUpLeg  -9.49492 24.4285 1.5785
LeftLeg  58.9489 5.28496 9.96135
LeftFoot  9.61638 3.99976 -21.7145
LeftToes  1.24767e-006 1.47042e-008 1.32732e-009
354
root  -0.650667 39.3889 32.1305 3.44666 -9.77484 0.0480347
RightUpLeg  -15.7604 1.39368 7.17479
RightLeg  5.61572 -17.9518 3.36739
RightFoot  2.1334 1.62535 -13.5655
RightToes  -2.08645e-008 3.77894e-005 6.81332e-007
Spine  -4.91227 -11.7001 -17.2749
Spine1  3.38776 -18.3621 35.7805
HEad  -26.7244 27.4094 -5.05289
LeftShoulder1  7.79574 -13.6515 -39.2765
LeftArm  17.3673 9.09955 -34.2526
LeftForeArm  168.44 -68.6957 -154.88
LeftHand  0.0877157 -4.91079 -0.688925
RightShoulder  3.98241 6.4754 34.0204
RightArm  2.4662 -34.0944 27.3562
RightForeArm  134.838 78.3072 124.972
RightHand  0.599114 10.0769 4.06476
LeftUpLeg  -4.47374 23.7465 5.34291
LeftLeg  58.4128 5.94181 10.8705
LeftFoot  10.9873 3.97562 -20.3013
LeftToes  1.24767e-006 1.47042e-008 1.32732e-009
355
root  -0.812865 39.3254 31.0638 5.12817 0.554718 -0.721008
RightUpLeg  -17.3326 1.35493 5.88303
RightLeg  0.260163 -27.1955 5.66025
RightFoot  4.46135 2.0297 -14.3137
RightToes  -2.08645e-008 3.77894e-005 6.81332e-007
Spine  -4.79978 -12.9573 -20.4308
Spine1  2.28196 -19.3404 37.5239
HEad  -28.1164 23.039 -4.39785
LeftShoulder1  7.672 -13.5656 -38.8031
LeftArm  18.3266 8.85618 -34.5066
LeftForeArm  166.692 -69.267 -153.938
LeftHand  0.0653884 -5.06706 -0.420245
RightShoulder  3.93757 6.40062 33.8705
RightArm  0.656706 -33.3143 28.8315
RightForeArm  135.777 78.2954 125.302
RightHand  0.471006 9.82355 3.17299
LeftUpLeg  -0.321464 21.7365 8.95919
LeftLeg  55.5374 8.00639 12.8262
LeftFoot  12.6131 3.66398 -17.523
LeftToes  1.24767e-006 1.47042e-008 1.32732e-009
356
root  -0.875772 39.1998 29.7773 6.35999 9.85565 -0.693848
RightUpLeg  -19.426 0.305658 3.73038
RightLeg  -3.80423 -34.4937 8.00641
RightFoot  7.04504 2.66452 -16.0391
RightToes  -2.08645e-008 3.77894e-005 6.81332e-007
Spine  -5.12675 -13.0143 -21.3807
Spine1  2.70342 -18.9063 35.7281
HEad  -29.7132 17.6099 -3.43336
LeftShoulder1  7.67648 -13.6028 -38.7342
LeftArm  19.1025 8.56276 -33.624
LeftForeArm  165.987 -69.6483 -153.34
LeftHand  -0.0226308 -4.60591 0.553283
RightShoulder  3.8144 6.28129 33.0998
RightArm  1.60442 -32.4772 29.9791
RightForeArm  136.408 78.3581 125.164
RightHand  0.287276 9.63316 1.80857
LeftUpLeg  3.03627 19.4227 11.6811
LeftLeg  48.8667 9.44485 11.8673
LeftFoot  12.5716 3.31069 -15.9097
LeftToes  1.24767e-006 1.47042e-008 1.32732e-009
357
root  -0.840576 39.002 28.2851 7.53113 17.4005 -0.129395
RightUpLeg  -21.6854 -1.47154 0.954491
RightLeg  -7.05781 -40.3573 10.3934
RightFoot  9.40732 3.20879 -17.0353
RightToes  -2.08645e-008 3.77894e-005 6.81332e-007
Spine  -6.64567 -11.9916 -19.6736
Spine1  4.83203 -17.1213 30.4108
HEad  -31.0537 11.4791 -2.27505
LeftShoulder1  7.76978 -13.7136 -38.9757
LeftArm  19.0823 8.81489 -31.8947
LeftForeArm  165.154 -69.9021 -152.882
LeftHand  -0.137493 -4.39598 1.91297
RightShoulder  3.73316 6.24808 32.3989
RightArm  3.99424 -31.198 30.2653
RightForeArm  136.001 78.3333 125.174
RightHand  0.281105 9.57678 1.77324
LeftUpLeg  5.09164 16.5233 12.362
LeftLeg  39.328 7.33433 6.84448
LeftFoot  10.6996 3.55526 -18.4424
LeftToes  1.24767e-006 1.47042e-008 1.32732e-009
